<svg xmlns="http://www.w3.org/2000/svg" width="18" height="18" viewBox="0 0 18 18"><defs><style>.cls-1{fill:#fff;fill-rule:evenodd}</style></defs><path id="favorite" class="cls-1" d="M14.168 17.905a1.68 1.68 0 0 1-1.543-.2s-1.662-1.232-3.63-2.694L5.42 17.665a1.643 1.643 0 0 1-1.01.344 1.7 1.7 0 0 1-1.688-1.7 1.717 1.717 0 0 1 .046-.388l1.29-4.647-3.4-2.732a1.7 1.7 0 0 1 1.03-3.047l4.242-.007A198.312 198.312 0 0 0 7.363 1.27a1.68 1.68 0 0 1 3.263 0s.663 2.04 1.43 4.216l4.29.007a1.7 1.7 0 0 1 1 3.03s-1.55 1.25-3.42 2.75c.732 2.62 1.29 4.644 1.29 4.644a1.878 1.878 0 0 1 .04.248 1.72 1.72 0 0 1-1.088 1.74zM9 12.732a1 1 0 0 1 .6.2l3.42 2.54c-.3-1.094-.818-2.942-1.2-4.3a1.022 1.022 0 0 1 .344-1.07s2.147-1.72 3.264-2.62h-4.13a1.007 1.007 0 0 1-.9-.674S9.485 4.03 9.006 2.68C8.526 4.03 7.613 6.81 7.613 6.81a1.007 1.007 0 0 1-.9.675H2.587l3.26 2.618a1.02 1.02 0 0 1 .342 1.07l-1.193 4.3 3.414-2.534a1 1 0 0 1 .59-.204z"/></svg>